<svg xmlns="http://www.w3.org/2000/svg" xmlns:svg="http://www.w3.org/2000/svg" xmlns:xlink="http://www.w3.org/1999/xlink" id="svg1" width="1076.537" height="429.545" version="1.1" viewBox="0 0 1076.537 429.545" xml:space="preserve"><defs id="defs1"><style id="style1">.j{fill:#fff}.k{fill:url(#h);opacity:.75}.l{fill:url(#f);opacity:.25}.m{fill:url(#g);opacity:.5}.n{fill:url(#i)}.o{fill:url(#e)}.p,.q{fill:none;stroke:#000;stroke-miterlimit:10;stroke-width:.18px}.q{fill:url(#d)}</style><linearGradient id="d" x1=".24" x2="208.24" y1="104.09" y2="104.09" gradientUnits="userSpaceOnUse"><stop id="stop1" offset="0" stop-color="#19006a"/><stop id="stop2" offset="1" stop-color="#8700df"/></linearGradient><linearGradient id="e" x1="62.06" x2="126.71" y1="104.54" y2="104.54" gradientUnits="userSpaceOnUse"><stop id="stop3" offset="0" stop-color="#400094"/><stop id="stop4" offset="1" stop-color="#6100b7"/></linearGradient><linearGradient id="f" x1="62.33" x2="126.98" y1="104.26" y2="104.26" xlink:href="#e"/><linearGradient id="g" x1="70.14" x2="134.79" y1="104.26" y2="104.26" xlink:href="#e"/><linearGradient id="h" x1="77.95" x2="142.6" y1="104.26" y2="104.26" xlink:href="#e"/><linearGradient id="i" x1="85.75" x2="150.4" y1="104.26" y2="104.26" xlink:href="#e"/><linearGradient id="linearGradient1" x1="62.06" x2="126.71" y1="104.54" y2="104.54" gradientUnits="userSpaceOnUse" xlink:href="#e"/></defs><g id="layer1" transform="translate(-41.960559,-189.34442)"><g id="g1" transform="matrix(2.0624352,0,0,2.0624352,41.965315,189.34442)"><g id="b"><g id="c"><rect id="rect4" width="208" height="208" x=".24" y=".09" class="q" rx="30.28" ry="30.28" style="fill:url(#d)"/><path id="path4" d="m 0.24,35.59 c 0,0 -4,-31.5 29,-35.5 h 126.67 l 24.81,0.13 c 0,0 24.53,1.65 27.53,28.76 v 142.78 c 0,0 3.11,33.33 -29.44,36.33 H 34.69 c 0,0 -34.75,3.67 -34.6,-35.67 0.3,-40.67 0.15,-40.33 0.15,-40.33 z" class="p"/><path id="path5" d="M 122.44,97.16 74.85,69.68 C 69.16,66.4 62.06,70.5 62.06,77.07 v 54.96 c 0,6.56 7.11,10.67 12.79,7.39 l 47.59,-27.48 c 5.69,-3.28 5.69,-11.49 0,-14.77 z" class="o" style="fill:url(#linearGradient1)"/><circle id="circle5" cx="103.99" cy="104.34" r="62.25" class="j"/><g id="g9"><path id="path6" d="M 122.72,96.87 75.13,69.39 c -5.69,-3.28 -12.79,0.82 -12.79,7.39 v 54.96 c 0,6.56 7.11,10.67 12.79,7.39 l 47.59,-27.48 c 5.69,-3.28 5.69,-11.49 0,-14.77 z" class="l" style="fill:url(#f)"/><path id="path7" d="M 130.53,96.87 82.94,69.39 c -5.69,-3.28 -12.79,0.82 -12.79,7.39 v 54.96 c 0,6.56 7.11,10.67 12.79,7.39 l 47.59,-27.48 c 5.69,-3.28 5.69,-11.49 0,-14.77 z" class="m" style="fill:url(#g)"/><path id="path8" d="M 138.33,96.87 90.74,69.39 c -5.69,-3.28 -12.79,0.82 -12.79,7.39 v 54.96 c 0,6.56 7.11,10.67 12.79,7.39 l 47.59,-27.48 c 5.69,-3.28 5.69,-11.49 0,-14.77 z" class="k" style="fill:url(#h)"/><path id="path9" d="M 146.14,96.87 98.55,69.39 c -5.69,-3.28 -12.79,0.82 -12.79,7.39 v 54.96 c 0,6.56 7.11,10.67 12.79,7.39 l 47.59,-27.48 c 5.69,-3.28 5.69,-11.49 0,-14.77 z" class="n" style="fill:url(#i)"/></g></g></g></g><text xml:space="preserve" style="font-size:85.3333px;fill:#000" id="text1" x="796.236" y="432.005"><tspan id="tspan1" x="796.236" y="432.005" style="font-style:normal;font-variant:normal;font-weight:700;font-stretch:normal;font-size:85.3333px;font-family:Ubuntu;-inkscape-font-specification:'Ubuntu Bold';text-align:center;text-anchor:middle">Drop video here</tspan></text></g></svg>