<svg xmlns="http://www.w3.org/2000/svg" xmlns:xlink="http://www.w3.org/1999/xlink" viewBox="0 0 208.41 208.27"><defs><style>.j{fill:#fff}.k{fill:url(#h);opacity:.75}.l{fill:url(#f);opacity:.25}.m{fill:url(#g);opacity:.5}.n{fill:url(#i)}.o{fill:url(#e)}.p,.q{fill:none;stroke:#000;stroke-miterlimit:10;stroke-width:.18px}.q{fill:url(#d)}</style><linearGradient id="d" x1=".24" x2="208.24" y1="104.09" y2="104.09" gradientTransform="matrix(1, 0, 0, 1, 0, 0)" gradientUnits="userSpaceOnUse"><stop offset="0" stop-color="#19006a"/><stop offset="1" stop-color="#8700df"/></linearGradient><linearGradient id="e" x1="62.06" x2="126.71" y1="104.54" y2="104.54" gradientTransform="matrix(1, 0, 0, 1, 0, 0)" gradientUnits="userSpaceOnUse"><stop offset="0" stop-color="#400094"/><stop offset="1" stop-color="#6100b7"/></linearGradient><linearGradient id="f" x1="62.33" x2="126.98" y1="104.26" y2="104.26" xlink:href="#e"/><linearGradient id="g" x1="70.14" x2="134.79" y1="104.26" y2="104.26" xlink:href="#e"/><linearGradient id="h" x1="77.95" x2="142.6" y1="104.26" y2="104.26" xlink:href="#e"/><linearGradient id="i" x1="85.75" x2="150.4" y1="104.26" y2="104.26" xlink:href="#e"/></defs><g id="b"><g id="c"><rect width="208" height="208" x=".24" y=".09" class="q" rx="30.28" ry="30.28"/><path d="M.24,35.59S-3.76,4.09,29.24,.09h126.67l24.81,.13s24.53,1.65,27.53,28.76V171.76s3.11,33.33-29.44,36.33H34.69S-.06,211.76,.09,172.42c.3-40.67,.15-40.33,.15-40.33V35.59Z" class="p"/><path d="M122.44,97.16l-47.59-27.48c-5.69-3.28-12.79,.82-12.79,7.39v54.96c0,6.56,7.11,10.67,12.79,7.39l47.59-27.48c5.69-3.28,5.69-11.49,0-14.77Z" class="o"/><circle cx="103.99" cy="104.34" r="62.25" class="j"/><g><path d="M122.72,96.87l-47.59-27.48c-5.69-3.28-12.79,.82-12.79,7.39v54.96c0,6.56,7.11,10.67,12.79,7.39l47.59-27.48c5.69-3.28,5.69-11.49,0-14.77Z" class="l"/><path d="M130.53,96.87l-47.59-27.48c-5.69-3.28-12.79,.82-12.79,7.39v54.96c0,6.56,7.11,10.67,12.79,7.39l47.59-27.48c5.69-3.28,5.69-11.49,0-14.77Z" class="m"/><path d="M138.33,96.87l-47.59-27.48c-5.69-3.28-12.79,.82-12.79,7.39v54.96c0,6.56,7.11,10.67,12.79,7.39l47.59-27.48c5.69-3.28,5.69-11.49,0-14.77Z" class="k"/><path d="M146.14,96.87l-47.59-27.48c-5.69-3.28-12.79,.82-12.79,7.39v54.96c0,6.56,7.11,10.67,12.79,7.39l47.59-27.48c5.69-3.28,5.69-11.49,0-14.77Z" class="n"/></g></g></g></svg>